
<svg width="57px" height="57px" viewBox="0 0 57 57" version="1.1" xmlns="http://www.w3.org/2000/svg" xmlns:xlink="http://www.w3.org/1999/xlink">
    <!-- Generator: Sketch 51.2 (57519) - http://www.bohemiancoding.com/sketch -->
    <desc>Created with Sketch.</desc>
    <defs></defs>
    <g id="Fullscreen-attempt" stroke="none" stroke-width="1" fill="none" fill-rule="evenodd">
        <g id="Desktop-HD" transform="translate(-884.000000, -2178.000000)" fill="#FFFFFF" fill-rule="nonzero">
            <g id="facebook-brands" transform="translate(884.000000, 2178.000000)">
                <path d="M57,3.14263393 L57,53.8446429 C57,55.5877232 55.5877232,56.9872768 53.8573661,56.9872768 L39.3274554,56.9872768 L39.3274554,34.9252232 L46.7323661,34.9252232 L47.8392857,26.3243304 L39.3147321,26.3243304 L39.3147321,20.8279018 C39.3147321,18.3341518 40.0017857,16.6419643 43.5770089,16.6419643 L48.1319196,16.6419643 L48.1319196,8.94441964 C47.3430804,8.84263393 44.6457589,8.60089286 41.4904018,8.60089286 C34.9252232,8.60089286 30.4212054,12.6087054 30.4212054,19.9754464 L30.4212054,26.3243304 L22.9908482,26.3243304 L22.9908482,34.9252232 L30.4212054,34.9252232 L30.4212054,57 L3.14263393,57 C1.41227679,57 0,55.5877232 0,53.8573661 L0,3.14263393 C0,1.41227679 1.41227679,0 3.14263393,0 L53.8446429,0 C55.5877232,0 57,1.41227679 57,3.14263393 Z" id="Shape"></path>
            </g>
        </g>
    </g>
</svg>