
<svg width="313px" height="62px" viewBox="0 0 313 62" version="1.1" xmlns="http://www.w3.org/2000/svg" xmlns:xlink="http://www.w3.org/1999/xlink">
    <!-- Generator: Sketch 51.2 (57519) - http://www.bohemiancoding.com/sketch -->
    <desc>Created with Sketch.</desc>
    <defs></defs>
    <g id="Fullscreen-attempt" stroke="none" stroke-width="1" fill="none" fill-rule="evenodd">
        <g id="Desktop-HD" transform="translate(-1075.000000, -2164.000000)" fill="#FFFFFF">
            <path d="M1105.304,2198.936 L1092.848,2198.936 L1080.176,2225 L1075.28,2225 L1088.384,2198.72 C1087.568,2198.576 1086.65601,2198.324 1085.648,2197.964 C1084.63999,2197.604 1083.728,2197.016 1082.912,2196.2 L1085.936,2193.32 C1086.416,2193.704 1087.016,2194.028 1087.736,2194.292 C1088.456,2194.556 1089.31999,2194.712 1090.328,2194.76 L1099.04,2177.408 L1122.44,2225 L1117.76,2225 L1105.304,2198.936 Z M1094.792,2194.832 L1103.432,2194.832 L1099.112,2185.976 L1094.792,2194.832 Z M1177.376,2176.4 L1177.376,2225 L1173.2,2225 L1173.2,2186.912 L1153.976,2206.424 L1134.68,2186.696 L1134.68,2225 L1130.504,2225 L1130.504,2176.328 L1153.976,2200.664 L1177.376,2176.4 Z M1227.992,2199.008 L1198.328,2199.008 L1198.328,2225 L1194.152,2225 L1194.152,2199.008 C1194.056,2199.008 1193.744,2198.984 1193.216,2198.936 C1192.688,2198.888 1192.04,2198.768 1191.272,2198.576 C1190.504,2198.384 1189.712,2198.108 1188.896,2197.748 C1188.08,2197.388 1187.336,2196.896 1186.664,2196.272 L1189.688,2193.392 C1190.168,2193.776 1190.768,2194.1 1191.488,2194.364 C1192.208,2194.628 1193.09599,2194.784 1194.152,2194.832 L1194.152,2177.552 L1198.328,2177.552 L1198.328,2194.832 L1227.992,2194.832 L1227.992,2177.552 L1232.168,2177.552 L1232.168,2225 L1227.992,2225 L1227.992,2199.008 Z M1253.192,2198.864 L1253.192,2225 L1249.016,2225 L1249.016,2199.008 C1248.92,2199.008 1248.608,2198.984 1248.08,2198.936 C1247.552,2198.888 1246.904,2198.768 1246.136,2198.576 C1245.368,2198.384 1244.576,2198.108 1243.76,2197.748 C1242.944,2197.388 1242.2,2196.896 1241.528,2196.272 L1244.552,2193.392 C1245.032,2193.776 1245.632,2194.1 1246.352,2194.364 C1247.072,2194.628 1247.95999,2194.784 1249.016,2194.832 L1249.016,2177.552 L1269.824,2177.552 C1271.93601,2177.552 1273.85599,2177.732 1275.584,2178.092 C1277.31201,2178.452 1278.78799,2179.04 1280.012,2179.856 C1281.23601,2180.672 1282.184,2181.76399 1282.856,2183.132 C1283.528,2184.50001 1283.864,2186.21599 1283.864,2188.28 C1283.864,2189.52801 1283.708,2190.76399 1283.396,2191.988 C1283.084,2193.21201 1282.568,2194.32799 1281.848,2195.336 C1281.128,2196.34401 1280.16801,2197.172 1278.968,2197.82 C1277.76799,2198.468 1276.28001,2198.816 1274.504,2198.864 L1288.184,2225 L1283.36,2225 L1270.112,2198.864 L1253.192,2198.864 Z M1253.192,2181.728 L1253.192,2194.832 L1270.04,2194.832 C1271.57601,2194.832 1272.94399,2194.748 1274.144,2194.58 C1275.34401,2194.412 1276.352,2194.1 1277.168,2193.644 C1277.984,2193.188 1278.608,2192.528 1279.04,2191.664 C1279.472,2190.8 1279.688,2189.67201 1279.688,2188.28 C1279.688,2185.78399 1278.90801,2184.068 1277.348,2183.132 C1275.78799,2182.196 1273.28002,2181.728 1269.824,2181.728 L1253.192,2181.728 Z M1324.472,2198.936 L1312.016,2198.936 L1299.344,2225 L1294.448,2225 L1318.208,2177.408 L1341.608,2225 L1336.928,2225 L1324.472,2198.936 Z M1313.96,2194.832 L1322.6,2194.832 L1318.28,2185.976 L1313.96,2194.832 Z M1315.184,2173.52 L1314.932,2173.016 C1314.764,2172.68 1314.596,2172.308 1314.428,2171.9 C1314.26,2171.492 1314.092,2171.108 1313.924,2170.748 C1313.756,2170.388 1313.672,2170.184 1313.672,2170.136 C1315.16001,2169.368 1316.36,2168.44401 1317.272,2167.364 C1318.184,2166.28399 1318.76,2165.384 1319,2164.664 L1322.672,2165.096 C1322.624,2166.056 1322.24,2167.03999 1321.52,2168.048 C1320.8,2169.05601 1319.996,2169.968 1319.108,2170.784 C1318.22,2171.6 1317.38,2172.272 1316.588,2172.8 C1315.796,2173.328 1315.328,2173.568 1315.184,2173.52 Z M1387.688,2177.552 L1387.688,2225.72 L1353.848,2187.056 L1353.848,2225 L1349.672,2225 L1349.672,2176.544 L1383.512,2214.92 L1383.512,2177.552 L1387.688,2177.552 Z" id="AMHRáN"></path>
        </g>
    </g>
</svg>