
<svg width="70px" height="57px" viewBox="0 0 70 57" version="1.1" xmlns="http://www.w3.org/2000/svg" xmlns:xlink="http://www.w3.org/1999/xlink">
    <!-- Generator: Sketch 51.2 (57519) - http://www.bohemiancoding.com/sketch -->
    <desc>Created with Sketch.</desc>
    <defs></defs>
    <g id="Fullscreen-attempt" stroke="none" stroke-width="1" fill="none" fill-rule="evenodd">
        <g id="Desktop-HD" transform="translate(-978.000000, -2178.000000)" fill="#FFFFFF" fill-rule="nonzero">
            <g id="twitter-brands" transform="translate(978.000000, 2178.000000)">
                <path d="M62.8047375,14.205417 C62.8491713,14.8288248 62.8491713,15.4523696 62.8491713,16.0757773 C62.8491713,35.0905355 48.4139391,57 22.0305353,57 C13.9023004,57 6.35156778,54.6397411 0,50.5430421 C1.15486779,50.6765511 2.2651651,50.7210999 3.46446666,50.7210999 C10.1712311,50.7210999 16.3452006,48.4500754 21.2754347,44.5758458 C14.9683007,44.4421997 9.68273314,40.300815 7.86163227,34.6007739 C8.75003418,34.7342829 9.63829937,34.8233803 10.571135,34.8233803 C11.8591674,34.8233803 13.1473365,34.6451855 14.3465014,34.3336187 C7.77290146,32.9975688 2.84253063,27.2085673 2.84253063,20.217162 L2.84253063,20.0391043 C4.75236231,21.107862 6.97336708,21.7758184 9.327263,21.8647787 C5.46302915,19.2819133 2.93139817,14.8733735 2.93139817,9.88583748 C2.93139817,7.21401174 3.64192829,4.76479245 4.88566362,2.62727703 C11.9478982,11.3553965 22.563467,17.0553005 34.4669315,17.6788453 C34.2448994,16.6100876 34.1115981,15.4969183 34.1115981,14.3836118 C34.1115981,6.45695789 40.5075996,0 48.4580994,0 C52.5887992,0 56.3197317,1.73671415 58.940367,4.542186 C62.1826648,3.91877827 65.291798,2.71637444 68.0457346,1.06875771 C66.9795976,4.40867696 64.7144325,7.21414881 61.7386005,8.99527459 C64.6257017,8.6837078 67.4239352,7.88196818 70,6.76879883 C68.046008,9.61868232 65.6029711,12.1568619 62.8047375,14.205417 Z" id="Shape"></path>
            </g>
        </g>
    </g>
</svg>